<?xml version="1.0" encoding="UTF-8"?>
<svg width="64" height="64" viewBox="0 0 64 64" fill="none" xmlns="http://www.w3.org/2000/svg">
    <rect width="64" height="64" fill="white"/>
    <path d="M32 4C35.1 4 38.1 4.5 41 5.3L38.4 12.7C36.4 12.2 34.3 12 32 12C20.9 12 12 20.9 12 32C12 43.1 20.9 52 32 52C43.1 52 52 43.1 52 32C52 30.6 51.9 29.3 51.6 28L59 25.4C59.7 27.6 60 29.8 60 32C60 47.5 47.5 60 32 60C16.5 60 4 47.5 4 32C4 16.5 16.5 4 32 4Z" fill="#7B2CBF" stroke="#7B2CBF" stroke-width="1.5"/>
    <circle cx="32" cy="32" r="12" fill="#00B4D8" fill-opacity="0.1" stroke="#00B4D8" stroke-width="2"/>
    <path d="M32 20V44M20 32H44" stroke="#00B4D8" stroke-width="2.5" stroke-linecap="round"/>
</svg>
