<?xml version="1.0" encoding="UTF-8"?>
<svg width="64" height="64" viewBox="0 0 64 64" fill="none" xmlns="http://www.w3.org/2000/svg">
    <rect width="64" height="64" fill="white"/>
    <path d="M8 48C12 50 17 51 22 50C18 48 16 44 16 40C17 40 18 39 19 39C16 37 14 34 15 30C17 32 20 34 24 34C22 28 28 22 34 24C34 22 35 20 37 19C39 21 41 23 44 24C45 22 47 20 50 19C49 22 51 25 54 27C56 27 58 26 60 25C58 28 56 31 53 33C53 44 42 54 28 52C22 50 16 47 12 43" fill="#7B2CBF" fill-opacity="0.1" stroke="#00B4D8" stroke-width="2.5" stroke-linecap="round"/>
</svg>
